<svg width="120" height="46" viewBox="0 0 120 46" fill="none" xmlns="http://www.w3.org/2000/svg">
<path d="M5.175 3.5C6.615 3.5 7.81 4.005 8.76 5.015C9.72 6.025 10.2 7.27 10.2 8.75C10.2 10.22 9.72 11.465 8.76 12.485C7.81 13.495 6.615 14 5.175 14H1.05V3.5H5.175ZM5.175 12.35C6.165 12.35 6.97 12.01 7.59 11.33C8.22 10.65 8.535 9.79 8.535 8.75C8.535 7.7 8.22 6.84 7.59 6.17C6.97 5.49 6.165 5.15 5.175 5.15H2.775V12.35H5.175ZM12.9427 10.94C13.0627 11.51 13.3377 11.95 13.7677 12.26C14.1977 12.56 14.7227 12.71 15.3427 12.71C16.2027 12.71 16.8477 12.4 17.2777 11.78L18.6127 12.56C17.8727 13.65 16.7777 14.195 15.3277 14.195C14.1077 14.195 13.1227 13.825 12.3727 13.085C11.6227 12.335 11.2477 11.39 11.2477 10.25C11.2477 9.13 11.6177 8.195 12.3577 7.445C13.0977 6.685 14.0477 6.305 15.2077 6.305C16.3077 6.305 17.2077 6.69 17.9077 7.46C18.6177 8.23 18.9727 9.165 18.9727 10.265C18.9727 10.435 18.9527 10.66 18.9127 10.94H12.9427ZM12.9277 9.62H17.3377C17.2277 9.01 16.9727 8.55 16.5727 8.24C16.1827 7.93 15.7227 7.775 15.1927 7.775C14.5927 7.775 14.0927 7.94 13.6927 8.27C13.2927 8.6 13.0377 9.05 12.9277 9.62ZM21.5602 8.57C21.5602 8.82 21.6952 9.02 21.9652 9.17C22.2452 9.31 22.5802 9.435 22.9702 9.545C23.3702 9.645 23.7702 9.765 24.1702 9.905C24.5702 10.045 24.9052 10.285 25.1752 10.625C25.4552 10.955 25.5952 11.375 25.5952 11.885C25.5952 12.605 25.3152 13.17 24.7552 13.58C24.2052 13.99 23.5102 14.195 22.6702 14.195C21.9302 14.195 21.2952 14.04 20.7652 13.73C20.2352 13.42 19.8502 12.99 19.6102 12.44L21.0052 11.63C21.2652 12.35 21.8202 12.71 22.6702 12.71C23.5202 12.71 23.9452 12.43 23.9452 11.87C23.9452 11.63 23.8052 11.435 23.5252 11.285C23.2552 11.135 22.9202 11.01 22.5202 10.91C22.1302 10.8 21.7352 10.675 21.3352 10.535C20.9352 10.395 20.5952 10.165 20.3152 9.845C20.0452 9.515 19.9102 9.1 19.9102 8.6C19.9102 7.91 20.1702 7.355 20.6902 6.935C21.2202 6.515 21.8752 6.305 22.6552 6.305C23.2752 6.305 23.8252 6.445 24.3052 6.725C24.7952 6.995 25.1702 7.375 25.4302 7.865L24.0652 8.63C23.8052 8.06 23.3352 7.775 22.6552 7.775C22.3452 7.775 22.0852 7.845 21.8752 7.985C21.6652 8.115 21.5602 8.31 21.5602 8.57ZM28.4613 5.075C28.2613 5.275 28.0213 5.375 27.7413 5.375C27.4613 5.375 27.2163 5.275 27.0063 5.075C26.8063 4.865 26.7063 4.62 26.7063 4.34C26.7063 4.06 26.8063 3.82 27.0063 3.62C27.2063 3.41 27.4513 3.305 27.7413 3.305C28.0313 3.305 28.2763 3.41 28.4763 3.62C28.6763 3.82 28.7763 4.06 28.7763 4.34C28.7763 4.62 28.6713 4.865 28.4613 5.075ZM26.9313 14V6.5H28.5513V14H26.9313ZM36.4023 6.5H37.9923V13.655C37.9923 14.795 37.6173 15.67 36.8673 16.28C36.1173 16.89 35.2073 17.195 34.1373 17.195C32.4073 17.195 31.2223 16.59 30.5823 15.38L31.9773 14.57C32.3673 15.34 33.0973 15.725 34.1673 15.725C34.8673 15.725 35.4123 15.54 35.8023 15.17C36.2023 14.81 36.4023 14.305 36.4023 13.655V12.74C35.7923 13.61 34.9223 14.045 33.7923 14.045C32.7323 14.045 31.8373 13.67 31.1073 12.92C30.3773 12.16 30.0123 11.245 30.0123 10.175C30.0123 9.105 30.3773 8.195 31.1073 7.445C31.8373 6.685 32.7323 6.305 33.7923 6.305C34.9223 6.305 35.7923 6.74 36.4023 7.61V6.5ZM32.3073 11.855C32.7673 12.305 33.3373 12.53 34.0173 12.53C34.6973 12.53 35.2623 12.305 35.7123 11.855C36.1723 11.405 36.4023 10.845 36.4023 10.175C36.4023 9.505 36.1723 8.945 35.7123 8.495C35.2623 8.045 34.6973 7.82 34.0173 7.82C33.3373 7.82 32.7673 8.045 32.3073 8.495C31.8573 8.945 31.6323 9.505 31.6323 10.175C31.6323 10.845 31.8573 11.405 32.3073 11.855ZM43.8255 6.305C44.6855 6.305 45.3805 6.58 45.9105 7.13C46.4405 7.68 46.7055 8.435 46.7055 9.395V14H45.0855V9.56C45.0855 9 44.9355 8.57 44.6355 8.27C44.3355 7.97 43.9255 7.82 43.4055 7.82C42.8355 7.82 42.3755 8 42.0255 8.36C41.6755 8.71 41.5005 9.25 41.5005 9.98V14H39.8805V6.5H41.5005V7.46C41.9905 6.69 42.7655 6.305 43.8255 6.305ZM56.4449 6.305C57.4749 6.305 58.3549 6.685 59.0849 7.445C59.8149 8.205 60.1799 9.14 60.1799 10.25C60.1799 11.35 59.8149 12.285 59.0849 13.055C58.3549 13.815 57.4749 14.195 56.4449 14.195C55.3049 14.195 54.4299 13.77 53.8199 12.92V14H52.1999V3.5H53.8199V7.565C54.4299 6.725 55.3049 6.305 56.4449 6.305ZM54.4949 11.975C54.9449 12.425 55.5099 12.65 56.1899 12.65C56.8699 12.65 57.4349 12.425 57.8849 11.975C58.3349 11.515 58.5599 10.94 58.5599 10.25C58.5599 9.56 58.3349 8.99 57.8849 8.54C57.4349 8.08 56.8699 7.85 56.1899 7.85C55.5099 7.85 54.9449 8.08 54.4949 8.54C54.0449 8.99 53.8199 9.56 53.8199 10.25C53.8199 10.94 54.0449 11.515 54.4949 11.975ZM66.4102 6.5H68.1352L65.2552 14.24C64.5352 16.18 63.3152 17.1 61.5952 17V15.485C62.1052 15.515 62.5152 15.405 62.8252 15.155C63.1352 14.915 63.3902 14.535 63.5902 14.015L63.6652 13.865L60.4852 6.5H62.2552L64.4902 11.945L66.4102 6.5Z" fill="white"/>
<mask id="mask0_2057_245" style="mask-type:luminance" maskUnits="userSpaceOnUse" x="0" y="21" width="120" height="25">
<path d="M120 21H0V46H120V21Z" fill="white"/>
</mask>
<g mask="url(#mask0_2057_245)">
<mask id="mask1_2057_245" style="mask-type:luminance" maskUnits="userSpaceOnUse" x="101" y="21" width="20" height="25">
<path d="M120.094 21.4551H101.141V46.0001H120.094V21.4551Z" fill="white"/>
</mask>
<g mask="url(#mask1_2057_245)">
<path d="M105.129 37.3351C102.875 37.0476 101.189 35.1883 101.189 32.9883V25.2995H110.464C107.51 25.2995 105.115 27.6165 105.115 30.4746V30.7038C105.115 32.1642 105.726 33.5625 106.809 34.5801L110.464 38.0156L114.334 34.5758C115.472 33.5641 116.12 32.1373 116.12 30.642C116.12 27.6914 113.647 25.2995 110.597 25.2995H110.464H101.189C101.189 23.1763 102.969 21.4551 105.163 21.4551H116.12C118.315 21.4551 120.094 23.1763 120.094 25.2995V30.9949C120.094 32.3164 119.89 33.6305 119.488 34.8935C119.083 36.1656 118.353 37.3181 117.364 38.2439L109.946 45.1922C109.4 45.7028 108.671 45.9883 107.912 45.9883H101.505L110.464 38.0156L105.129 37.3351Z" fill="white"/>
</g>
<mask id="mask2_2057_245" style="mask-type:luminance" maskUnits="userSpaceOnUse" x="81" y="21" width="20" height="16">
<path d="M100.529 21.4551H81.2695V36.8327H100.529V21.4551Z" fill="white"/>
</mask>
<g mask="url(#mask2_2057_245)">
<path d="M81.3916 26.5933V21.5137H100.458L81.3916 26.5933ZM100.458 21.5137V26.5933H94.0171V36.8321H87.9183V26.5933H81.3916V21.5137H100.458Z" fill="white"/>
</g>
<path d="M72.1055 27.6435C72.785 27.6161 73.3158 27.6024 73.6981 27.6024C75.7507 27.6024 77.4141 27.8831 78.6882 28.4446C79.9764 29.0061 80.6205 30.1085 80.6205 31.7518C80.6205 33.9018 79.6367 35.3534 77.6689 36.1066C75.7012 36.8597 73.4857 37.2363 71.0225 37.2363C68.5451 37.2363 66.273 36.8597 64.2062 36.1066C62.1394 35.3534 61.106 33.9018 61.106 31.7518H67.3489C67.3489 32.546 67.7099 33.0527 68.4319 33.2718C69.1539 33.4909 70.0174 33.6005 71.0225 33.6005C71.971 33.6005 72.785 33.4567 73.4645 33.1691C74.144 32.8815 74.4837 32.4365 74.4837 31.8339C74.4837 31.3273 74.1227 30.9986 73.4008 30.848C72.6929 30.6836 71.8648 30.6015 70.9163 30.6015L68.7929 30.622C67.3772 30.622 66.1173 30.5261 65.0131 30.3344C63.9231 30.129 62.9958 29.7113 62.2314 29.0814C61.4811 28.4378 61.106 27.4997 61.106 26.2672C61.106 24.7745 61.651 23.6516 62.741 22.8984C63.8452 22.1316 65.1051 21.6454 66.5208 21.44C67.9364 21.2209 69.437 21.1113 71.0225 21.1113C73.4857 21.1113 75.7012 21.4879 77.6689 22.2411C79.6367 22.9806 80.6205 24.4322 80.6205 26.5959H74.4837C74.4837 26.0207 74.144 25.5894 73.4645 25.3018C72.7991 25.0142 71.9851 24.8567 71.0225 24.8293C70.0032 24.8293 69.1326 24.9389 68.4106 25.158C67.7028 25.3771 67.3489 25.7263 67.3489 26.2056C67.3489 26.7534 67.7099 27.13 68.4319 27.3354C69.1539 27.5408 69.9678 27.6503 70.8739 27.664L72.1055 27.6435Z" fill="white"/>
<mask id="mask3_2057_245" style="mask-type:luminance" maskUnits="userSpaceOnUse" x="39" y="21" width="22" height="17">
<path d="M60.717 21.1582H39.3179V37.423H60.717V21.1582Z" fill="white"/>
</mask>
<g mask="url(#mask3_2057_245)">
<path d="M50.0112 21.1816C52.0227 21.1816 53.8346 21.5336 55.4466 22.2374C57.0586 22.9274 58.3212 23.8865 59.2342 25.1148C60.1473 26.3292 60.6038 27.7023 60.6038 29.2342C60.6038 30.7522 60.1473 32.1185 59.2342 33.3329C58.3212 34.5474 57.0586 35.5065 55.4466 36.2103C53.8346 36.9003 52.0227 37.2454 50.0112 37.2454C48.0853 37.2454 46.3021 36.9003 44.6614 36.2103C43.0351 35.5065 41.737 34.5474 40.7668 33.3329C39.811 32.1047 39.333 30.7384 39.333 29.2342C39.333 27.7162 39.811 26.343 40.7668 25.1148C41.737 23.8865 43.0351 22.9274 44.6614 22.2374C46.3021 21.5336 48.0853 21.1816 50.0112 21.1816ZM50.0326 32.8568C50.7174 32.8568 51.3737 32.7119 52.0013 32.4221C52.6433 32.1323 53.164 31.7114 53.5635 31.1594C53.963 30.6073 54.1626 29.9656 54.1626 29.2342C54.1626 28.489 53.963 27.8472 53.5635 27.309C53.164 26.757 52.6433 26.3361 52.0013 26.0463C51.3737 25.7565 50.7174 25.6116 50.0326 25.6116C49.3621 25.6116 48.7058 25.7565 48.0639 26.0463C47.4362 26.3361 46.9154 26.757 46.5017 27.309C46.1022 27.8472 45.9026 28.489 45.9026 29.2342C45.9026 29.9656 46.1022 30.6073 46.5017 31.1594C46.9154 31.7114 47.4362 32.1323 48.0639 32.4221C48.7058 32.7119 49.3621 32.8568 50.0326 32.8568Z" fill="white"/>
</g>
<mask id="mask4_2057_245" style="mask-type:luminance" maskUnits="userSpaceOnUse" x="19" y="21" width="21" height="16">
<path d="M39.3179 21.4551H19.7529V36.8327H39.3179V21.4551Z" fill="white"/>
</mask>
<g mask="url(#mask4_2057_245)">
<path d="M32.131 36.8321L27.7441 31.8847H25.6684V36.8321H19.8906V21.5137H32.2166C33.5433 21.5137 34.713 21.7276 35.726 22.1554C36.7532 22.5832 37.5449 23.1835 38.1013 23.9563C38.6719 24.7154 38.9573 25.5986 38.9573 26.606V26.6888C38.9573 27.9999 38.5578 29.0832 37.7589 29.9388C36.9742 30.7944 35.8829 31.3672 34.4849 31.657L39.0857 36.8321H32.131ZM33.3293 26.6888C33.3293 26.2748 33.2294 25.9781 33.0297 25.7987C32.8442 25.6055 32.5874 25.4882 32.2593 25.4468C31.9454 25.4054 31.4603 25.3847 30.8042 25.3847H30.1194C29.6771 25.3985 28.1935 25.4054 25.6684 25.4054V27.9309H30.7828H30.8042C31.4603 27.9309 31.9454 27.9102 32.2593 27.8688C32.5874 27.8274 32.8442 27.7239 33.0297 27.5583C33.2294 27.3788 33.3293 27.089 33.3293 26.6888Z" fill="white"/>
</g>
<mask id="mask5_2057_245" style="mask-type:luminance" maskUnits="userSpaceOnUse" x="0" y="21" width="20" height="16">
<path d="M19.4472 21.4551H0.187988V36.8327H19.4472V21.4551Z" fill="white"/>
</mask>
<g mask="url(#mask5_2057_245)">
<path d="M12.6516 21.5137C13.9784 21.5137 15.1482 21.7276 16.1611 22.1554C17.1883 22.5832 17.9801 23.1835 18.5364 23.9563C19.107 24.7154 19.3924 25.5986 19.3924 26.606V26.6888C19.3924 27.7791 19.107 28.7175 18.5364 29.5041C17.9801 30.2907 17.1954 30.8842 16.1825 31.2844C15.1696 31.6846 13.9926 31.8847 12.6516 31.8847H6.42444V36.8321H0.325684V21.5137H12.6516ZM11.4532 27.8274C11.5674 27.8274 11.9026 27.8274 12.459 27.8274C13.0297 27.8274 13.422 27.7377 13.636 27.5583C13.8642 27.3651 13.9784 27.0752 13.9784 26.6888C13.9784 26.3024 13.8785 26.0264 13.6788 25.8608C13.4933 25.6952 13.2365 25.5917 12.9084 25.5503C12.5945 25.5089 12.1095 25.4882 11.4532 25.4882H10.7899C10.3619 25.502 8.90675 25.5089 6.42444 25.5089V27.8274H11.4319H11.4532Z" fill="white"/>
</g>
</g>
</svg>
