<svg width="120" height="50" viewBox="0 0 120 50" fill="none" xmlns="http://www.w3.org/2000/svg">
<path d="M44.21 4.4C45.938 4.4 47.372 5.006 48.512 6.218C49.664 7.43 50.24 8.924 50.24 10.7C50.24 12.464 49.664 13.958 48.512 15.182C47.372 16.394 45.938 17 44.21 17H39.26V4.4H44.21ZM44.21 15.02C45.398 15.02 46.364 14.612 47.108 13.796C47.864 12.98 48.242 11.948 48.242 10.7C48.242 9.44 47.864 8.408 47.108 7.604C46.364 6.788 45.398 6.38 44.21 6.38H41.33V15.02H44.21ZM53.5312 13.328C53.6752 14.012 54.0052 14.54 54.5212 14.912C55.0372 15.272 55.6672 15.452 56.4112 15.452C57.4432 15.452 58.2172 15.08 58.7332 14.336L60.3352 15.272C59.4472 16.58 58.1332 17.234 56.3932 17.234C54.9292 17.234 53.7472 16.79 52.8472 15.902C51.9472 15.002 51.4972 13.868 51.4972 12.5C51.4972 11.156 51.9412 10.034 52.8292 9.134C53.7172 8.222 54.8572 7.766 56.2492 7.766C57.5692 7.766 58.6492 8.228 59.4892 9.152C60.3412 10.076 60.7672 11.198 60.7672 12.518C60.7672 12.722 60.7432 12.992 60.6952 13.328H53.5312ZM53.5132 11.744H58.8052C58.6732 11.012 58.3672 10.46 57.8872 10.088C57.4192 9.716 56.8672 9.53 56.2312 9.53C55.5112 9.53 54.9112 9.728 54.4312 10.124C53.9512 10.52 53.6452 11.06 53.5132 11.744ZM63.8722 10.484C63.8722 10.784 64.0342 11.024 64.3582 11.204C64.6942 11.372 65.0962 11.522 65.5642 11.654C66.0442 11.774 66.5242 11.918 67.0042 12.086C67.4842 12.254 67.8862 12.542 68.2102 12.95C68.5462 13.346 68.7142 13.85 68.7142 14.462C68.7142 15.326 68.3782 16.004 67.7062 16.496C67.0462 16.988 66.2122 17.234 65.2042 17.234C64.3162 17.234 63.5542 17.048 62.9182 16.676C62.2822 16.304 61.8202 15.788 61.5322 15.128L63.2062 14.156C63.5182 15.02 64.1842 15.452 65.2042 15.452C66.2242 15.452 66.7342 15.116 66.7342 14.444C66.7342 14.156 66.5662 13.922 66.2302 13.742C65.9062 13.562 65.5042 13.412 65.0242 13.292C64.5562 13.16 64.0822 13.01 63.6022 12.842C63.1222 12.674 62.7142 12.398 62.3782 12.014C62.0542 11.618 61.8922 11.12 61.8922 10.52C61.8922 9.692 62.2042 9.026 62.8282 8.522C63.4642 8.018 64.2502 7.766 65.1862 7.766C65.9302 7.766 66.5902 7.934 67.1662 8.27C67.7542 8.594 68.2042 9.05 68.5162 9.638L66.8782 10.556C66.5662 9.872 66.0022 9.53 65.1862 9.53C64.8142 9.53 64.5022 9.614 64.2502 9.782C63.9982 9.938 63.8722 10.172 63.8722 10.484ZM72.1536 6.29C71.9136 6.53 71.6256 6.65 71.2896 6.65C70.9536 6.65 70.6596 6.53 70.4076 6.29C70.1676 6.038 70.0476 5.744 70.0476 5.408C70.0476 5.072 70.1676 4.784 70.4076 4.544C70.6476 4.292 70.9416 4.166 71.2896 4.166C71.6376 4.166 71.9316 4.292 72.1716 4.544C72.4116 4.784 72.5316 5.072 72.5316 5.408C72.5316 5.744 72.4056 6.038 72.1536 6.29ZM70.3176 17V8H72.2616V17H70.3176ZM81.6828 8H83.5908V16.586C83.5908 17.954 83.1408 19.004 82.2408 19.736C81.3408 20.468 80.2488 20.834 78.9648 20.834C76.8888 20.834 75.4668 20.108 74.6988 18.656L76.3728 17.684C76.8408 18.608 77.7168 19.07 79.0008 19.07C79.8408 19.07 80.4948 18.848 80.9628 18.404C81.4428 17.972 81.6828 17.366 81.6828 16.586V15.488C80.9508 16.532 79.9068 17.054 78.5508 17.054C77.2788 17.054 76.2048 16.604 75.3288 15.704C74.4528 14.792 74.0148 13.694 74.0148 12.41C74.0148 11.126 74.4528 10.034 75.3288 9.134C76.2048 8.222 77.2788 7.766 78.5508 7.766C79.9068 7.766 80.9508 8.288 81.6828 9.332V8ZM76.7688 14.426C77.3208 14.966 78.0048 15.236 78.8208 15.236C79.6368 15.236 80.3148 14.966 80.8548 14.426C81.4068 13.886 81.6828 13.214 81.6828 12.41C81.6828 11.606 81.4068 10.934 80.8548 10.394C80.3148 9.854 79.6368 9.584 78.8208 9.584C78.0048 9.584 77.3208 9.854 76.7688 10.394C76.2288 10.934 75.9588 11.606 75.9588 12.41C75.9588 13.214 76.2288 13.886 76.7688 14.426ZM90.5907 7.766C91.6227 7.766 92.4567 8.096 93.0927 8.756C93.7287 9.416 94.0467 10.322 94.0467 11.474V17H92.1027V11.672C92.1027 11 91.9227 10.484 91.5627 10.124C91.2027 9.764 90.7107 9.584 90.0867 9.584C89.4027 9.584 88.8507 9.8 88.4307 10.232C88.0107 10.652 87.8007 11.3 87.8007 12.176V17H85.8567V8H87.8007V9.152C88.3887 8.228 89.3187 7.766 90.5907 7.766ZM105.734 7.766C106.97 7.766 108.026 8.222 108.902 9.134C109.778 10.046 110.216 11.168 110.216 12.5C110.216 13.82 109.778 14.942 108.902 15.866C108.026 16.778 106.97 17.234 105.734 17.234C104.366 17.234 103.316 16.724 102.584 15.704V17H100.64V4.4H102.584V9.278C103.316 8.27 104.366 7.766 105.734 7.766ZM103.394 14.57C103.934 15.11 104.612 15.38 105.428 15.38C106.244 15.38 106.922 15.11 107.462 14.57C108.002 14.018 108.272 13.328 108.272 12.5C108.272 11.672 108.002 10.988 107.462 10.448C106.922 9.896 106.244 9.62 105.428 9.62C104.612 9.62 103.934 9.896 103.394 10.448C102.854 10.988 102.584 11.672 102.584 12.5C102.584 13.328 102.854 14.018 103.394 14.57ZM117.692 8H119.762L116.306 17.288C115.442 19.616 113.978 20.72 111.914 20.6V18.782C112.526 18.818 113.018 18.686 113.39 18.386C113.762 18.098 114.068 17.642 114.308 17.018L114.398 16.838L110.582 8H112.706L115.388 14.534L117.692 8Z" fill="white"/>
<g clip-path="url(#clip0_2006_604)">
<mask id="mask0_2006_604" style="mask-type:luminance" maskUnits="userSpaceOnUse" x="0" y="25" width="120" height="25">
<path d="M120 25H0V50H120V25Z" fill="white"/>
</mask>
<g mask="url(#mask0_2006_604)">
<mask id="mask1_2006_604" style="mask-type:luminance" maskUnits="userSpaceOnUse" x="101" y="25" width="20" height="25">
<path d="M120.094 25.4551H101.141V50.0001H120.094V25.4551Z" fill="white"/>
</mask>
<g mask="url(#mask1_2006_604)">
<path d="M105.129 41.3351C102.875 41.0476 101.189 39.1883 101.189 36.9883V29.2995H110.464C107.51 29.2995 105.115 31.6165 105.115 34.4746V34.7038C105.115 36.1642 105.726 37.5625 106.809 38.5801L110.464 42.0156L114.334 38.5758C115.472 37.5641 116.12 36.1373 116.12 34.642C116.12 31.6914 113.647 29.2995 110.597 29.2995H110.464H101.189C101.189 27.1763 102.969 25.4551 105.163 25.4551H116.12C118.315 25.4551 120.094 27.1763 120.094 29.2995V34.9949C120.094 36.3164 119.89 37.6305 119.488 38.8935C119.083 40.1656 118.353 41.3181 117.364 42.2439L109.946 49.1922C109.4 49.7028 108.671 49.9883 107.912 49.9883H101.505L110.464 42.0156L105.129 41.3351Z" fill="white"/>
</g>
<mask id="mask2_2006_604" style="mask-type:luminance" maskUnits="userSpaceOnUse" x="81" y="25" width="20" height="16">
<path d="M100.529 25.4551H81.2695V40.8327H100.529V25.4551Z" fill="white"/>
</mask>
<g mask="url(#mask2_2006_604)">
<path d="M81.3916 30.5933V25.5137H100.458L81.3916 30.5933ZM100.458 25.5137V30.5933H94.0171V40.8321H87.9183V30.5933H81.3916V25.5137H100.458Z" fill="white"/>
</g>
<path d="M72.1055 31.6435C72.785 31.6161 73.3158 31.6024 73.6981 31.6024C75.7507 31.6024 77.4141 31.8831 78.6882 32.4446C79.9764 33.0061 80.6205 34.1085 80.6205 35.7518C80.6205 37.9018 79.6367 39.3534 77.6689 40.1066C75.7012 40.8597 73.4857 41.2363 71.0225 41.2363C68.5451 41.2363 66.273 40.8597 64.2062 40.1066C62.1394 39.3534 61.106 37.9018 61.106 35.7518H67.3489C67.3489 36.546 67.7099 37.0527 68.4319 37.2718C69.1539 37.4909 70.0174 37.6005 71.0225 37.6005C71.971 37.6005 72.785 37.4567 73.4645 37.1691C74.144 36.8815 74.4837 36.4365 74.4837 35.8339C74.4837 35.3273 74.1227 34.9986 73.4008 34.848C72.6929 34.6836 71.8648 34.6015 70.9163 34.6015L68.7929 34.622C67.3772 34.622 66.1173 34.5261 65.0131 34.3344C63.9231 34.129 62.9958 33.7113 62.2314 33.0814C61.4811 32.4378 61.106 31.4997 61.106 30.2672C61.106 28.7745 61.651 27.6516 62.741 26.8984C63.8452 26.1316 65.1051 25.6454 66.5208 25.44C67.9364 25.2209 69.437 25.1113 71.0225 25.1113C73.4857 25.1113 75.7012 25.4879 77.6689 26.2411C79.6367 26.9806 80.6205 28.4322 80.6205 30.5959H74.4837C74.4837 30.0207 74.144 29.5894 73.4645 29.3018C72.7991 29.0142 71.9851 28.8567 71.0225 28.8293C70.0032 28.8293 69.1326 28.9389 68.4106 29.158C67.7028 29.3771 67.3489 29.7263 67.3489 30.2056C67.3489 30.7534 67.7099 31.13 68.4319 31.3354C69.1539 31.5408 69.9678 31.6503 70.8739 31.664L72.1055 31.6435Z" fill="white"/>
<mask id="mask3_2006_604" style="mask-type:luminance" maskUnits="userSpaceOnUse" x="39" y="25" width="22" height="17">
<path d="M60.717 25.1582H39.3179V41.423H60.717V25.1582Z" fill="white"/>
</mask>
<g mask="url(#mask3_2006_604)">
<path d="M50.0112 25.1816C52.0227 25.1816 53.8346 25.5336 55.4466 26.2374C57.0586 26.9274 58.3212 27.8865 59.2342 29.1148C60.1473 30.3292 60.6038 31.7023 60.6038 33.2342C60.6038 34.7522 60.1473 36.1185 59.2342 37.3329C58.3212 38.5474 57.0586 39.5065 55.4466 40.2103C53.8346 40.9003 52.0227 41.2454 50.0112 41.2454C48.0853 41.2454 46.3021 40.9003 44.6614 40.2103C43.0351 39.5065 41.737 38.5474 40.7668 37.3329C39.811 36.1047 39.333 34.7384 39.333 33.2342C39.333 31.7161 39.811 30.343 40.7668 29.1148C41.737 27.8865 43.0351 26.9274 44.6614 26.2374C46.3021 25.5336 48.0853 25.1816 50.0112 25.1816ZM50.0326 36.8568C50.7174 36.8568 51.3737 36.7119 52.0013 36.4221C52.6433 36.1323 53.164 35.7114 53.5635 35.1594C53.963 34.6073 54.1626 33.9656 54.1626 33.2342C54.1626 32.489 53.963 31.8472 53.5635 31.309C53.164 30.757 52.6433 30.3361 52.0013 30.0463C51.3737 29.7565 50.7174 29.6116 50.0326 29.6116C49.3621 29.6116 48.7058 29.7565 48.0639 30.0463C47.4362 30.3361 46.9154 30.757 46.5017 31.309C46.1022 31.8472 45.9026 32.489 45.9026 33.2342C45.9026 33.9656 46.1022 34.6073 46.5017 35.1594C46.9154 35.7114 47.4362 36.1323 48.0639 36.4221C48.7058 36.7119 49.3621 36.8568 50.0326 36.8568Z" fill="white"/>
</g>
<mask id="mask4_2006_604" style="mask-type:luminance" maskUnits="userSpaceOnUse" x="19" y="25" width="21" height="16">
<path d="M39.3179 25.4551H19.7529V40.8327H39.3179V25.4551Z" fill="white"/>
</mask>
<g mask="url(#mask4_2006_604)">
<path d="M32.131 40.8321L27.7441 35.8847H25.6684V40.8321H19.8906V25.5137H32.2166C33.5433 25.5137 34.713 25.7276 35.726 26.1554C36.7532 26.5832 37.5449 27.1835 38.1013 27.9563C38.6719 28.7154 38.9573 29.5986 38.9573 30.606V30.6888C38.9573 31.9999 38.5578 33.0832 37.7589 33.9388C36.9742 34.7944 35.8829 35.3672 34.4849 35.657L39.0857 40.8321H32.131ZM33.3293 30.6888C33.3293 30.2748 33.2294 29.9781 33.0297 29.7987C32.8442 29.6055 32.5874 29.4882 32.2593 29.4468C31.9454 29.4054 31.4603 29.3847 30.8042 29.3847H30.1194C29.6771 29.3985 28.1935 29.4054 25.6684 29.4054V31.9309H30.7828H30.8042C31.4603 31.9309 31.9454 31.9102 32.2593 31.8688C32.5874 31.8274 32.8442 31.7239 33.0297 31.5583C33.2294 31.3788 33.3293 31.089 33.3293 30.6888Z" fill="white"/>
</g>
<mask id="mask5_2006_604" style="mask-type:luminance" maskUnits="userSpaceOnUse" x="0" y="25" width="20" height="16">
<path d="M19.4472 25.4551H0.187988V40.8327H19.4472V25.4551Z" fill="white"/>
</mask>
<g mask="url(#mask5_2006_604)">
<path d="M12.6516 25.5137C13.9784 25.5137 15.1482 25.7276 16.1611 26.1554C17.1883 26.5832 17.9801 27.1835 18.5364 27.9563C19.107 28.7154 19.3924 29.5986 19.3924 30.606V30.6888C19.3924 31.7791 19.107 32.7175 18.5364 33.5041C17.9801 34.2907 17.1954 34.8842 16.1825 35.2844C15.1696 35.6846 13.9926 35.8847 12.6516 35.8847H6.42444V40.8321H0.325684V25.5137H12.6516ZM11.4532 31.8274C11.5674 31.8274 11.9026 31.8274 12.459 31.8274C13.0297 31.8274 13.422 31.7377 13.636 31.5583C13.8642 31.3651 13.9784 31.0752 13.9784 30.6888C13.9784 30.3024 13.8785 30.0264 13.6788 29.8608C13.4933 29.6952 13.2365 29.5917 12.9084 29.5503C12.5945 29.5089 12.1095 29.4882 11.4532 29.4882H10.7899C10.3619 29.502 8.90675 29.5089 6.42444 29.5089V31.8274H11.4319H11.4532Z" fill="white"/>
</g>
</g>
</g>
<defs>
<clipPath id="clip0_2006_604">
<rect width="120" height="25" fill="white" transform="translate(0 25)"/>
</clipPath>
</defs>
</svg>
