<svg width="60" height="59" viewBox="0 0 60 59" fill="none" xmlns="http://www.w3.org/2000/svg">
<g clip-path="url(#clip0_370_456)">
<path d="M31.6925 19.6666C36.4441 19.6666 40.2961 15.8141 40.2961 11.0618C40.2961 6.30952 36.4441 2.45703 31.6925 2.45703C26.9408 2.45703 23.0889 6.30952 23.0889 11.0618C23.0889 15.8141 26.9408 19.6666 31.6925 19.6666Z" fill="#7B83EB"/>
<path d="M31.6925 19.6666C36.4441 19.6666 40.2961 15.8141 40.2961 11.0618C40.2961 6.30952 36.4441 2.45703 31.6925 2.45703C26.9408 2.45703 23.0889 6.30952 23.0889 11.0618C23.0889 15.8141 26.9408 19.6666 31.6925 19.6666Z" fill="url(#paint0_linear_370_456)"/>
<path opacity="0.1" d="M31.0786 12.9062H23.2861L23.3248 13.0777L23.3285 13.0925L23.3691 13.251C23.9353 15.3985 25.3091 17.2441 27.2036 18.4026C29.098 19.5611 31.3668 19.9429 33.536 19.4682V15.364C33.534 14.7127 33.2745 14.0887 32.8141 13.6282C32.3537 13.1678 31.7297 12.9082 31.0786 12.9062Z" fill="black"/>
<path opacity="0.2" d="M29.2351 14.75H23.9185C24.6162 16.2214 25.7171 17.4645 27.0933 18.3349C28.4694 19.2054 30.0642 19.6674 31.6925 19.6673V17.2077C31.6906 16.5565 31.431 15.9325 30.9706 15.472C30.5102 15.0115 29.8863 14.7519 29.2351 14.75Z" fill="black"/>
<path d="M51.0494 20.2812C54.6129 20.2812 57.5017 17.3921 57.5017 13.8281C57.5017 10.2642 54.6129 7.375 51.0494 7.375C47.4859 7.375 44.5972 10.2642 44.5972 13.8281C44.5972 17.3921 47.4859 20.2812 51.0494 20.2812Z" fill="#5059C9"/>
<path d="M51.0494 20.2812C54.6129 20.2812 57.5017 17.3921 57.5017 13.8281C57.5017 10.2642 54.6129 7.375 51.0494 7.375C47.4859 7.375 44.5972 10.2642 44.5972 13.8281C44.5972 17.3921 47.4859 20.2812 51.0494 20.2812Z" fill="url(#paint1_linear_370_456)"/>
<path d="M56.5799 22.125H42.0882C41.7753 22.125 41.4752 22.2493 41.2539 22.4706C41.0326 22.6919 40.9083 22.992 40.9083 23.305V38.2578C40.8684 40.4219 41.5731 42.534 42.9044 44.2405C44.2358 45.9469 46.1129 47.1441 48.2215 47.6314C49.5645 47.9133 50.9534 47.892 52.2871 47.5692C53.6208 47.2465 54.8658 46.6303 55.9314 45.7656C56.9969 44.9009 57.8563 43.8094 58.4468 42.5706C59.0374 41.3318 59.3443 39.9768 59.3452 38.6044V24.8906C59.3452 24.1571 59.0539 23.4537 58.5353 22.935C58.0167 22.4164 57.3133 22.125 56.5799 22.125Z" fill="#5059C9"/>
<path d="M56.5799 22.125H42.0882C41.7753 22.125 41.4752 22.2493 41.2539 22.4706C41.0326 22.6919 40.9083 22.992 40.9083 23.305V38.2578C40.8684 40.4219 41.5731 42.534 42.9044 44.2405C44.2358 45.9469 46.1129 47.1441 48.2215 47.6314C49.5645 47.9133 50.9534 47.892 52.2871 47.5692C53.6208 47.2465 54.8658 46.6303 55.9314 45.7656C56.9969 44.9009 57.8563 43.8094 58.4468 42.5706C59.0374 41.3318 59.3443 39.9768 59.3452 38.6044V24.8906C59.3452 24.1571 59.0539 23.4537 58.5353 22.935C58.0167 22.4164 57.3133 22.125 56.5799 22.125Z" fill="url(#paint2_linear_370_456)"/>
<path d="M46.4403 24.8906V42.4063C46.4421 45.6523 45.3726 48.8081 43.3977 51.384C41.4229 53.9599 38.6531 55.8119 35.5182 56.6524C32.3833 57.493 29.0587 57.2752 26.0603 56.0328C23.0619 54.7904 20.5573 52.5928 18.9353 49.7813C18.5806 49.1916 18.2724 48.5751 18.0136 47.9375C17.7723 47.3363 17.5691 46.7205 17.4052 46.0938C17.1013 44.8881 16.9465 43.6496 16.9443 42.4063V24.8906C16.9439 24.5273 17.015 24.1675 17.1538 23.8317C17.2926 23.4959 17.4963 23.1909 17.7532 22.934C18.0101 22.677 18.3151 22.4733 18.6508 22.3345C18.9865 22.1957 19.3463 22.1245 19.7096 22.125H43.6751C44.0384 22.1245 44.3982 22.1957 44.7339 22.3345C45.0696 22.4733 45.3746 22.677 45.6315 22.934C45.8884 23.1909 46.092 23.4959 46.2308 23.8317C46.3696 24.1675 46.4408 24.5273 46.4403 24.8906Z" fill="#7B83EB"/>
<path d="M46.4403 24.8906V42.4063C46.4421 45.6523 45.3726 48.8081 43.3977 51.384C41.4229 53.9599 38.6531 55.8119 35.5182 56.6524C32.3833 57.493 29.0587 57.2752 26.0603 56.0328C23.0619 54.7904 20.5573 52.5928 18.9353 49.7813C18.5806 49.1916 18.2724 48.5751 18.0136 47.9375C17.7723 47.3363 17.5691 46.7205 17.4052 46.0938C17.1013 44.8881 16.9465 43.6496 16.9443 42.4063V24.8906C16.9439 24.5273 17.015 24.1675 17.1538 23.8317C17.2926 23.4959 17.4963 23.1909 17.7532 22.934C18.0101 22.677 18.3151 22.4733 18.6508 22.3345C18.9865 22.1957 19.3463 22.1245 19.7096 22.125H43.6751C44.0384 22.1245 44.3982 22.1957 44.7339 22.3345C45.0696 22.4733 45.3746 22.677 45.6315 22.934C45.8884 23.1909 46.092 23.4959 46.2308 23.8317C46.3696 24.1675 46.4408 24.5273 46.4403 24.8906Z" fill="url(#paint3_linear_370_456)"/>
<path opacity="0.2" d="M29.2351 14.75H23.9185C24.6162 16.2214 25.7171 17.4645 27.0933 18.3349C28.4694 19.2054 30.0642 19.6674 31.6925 19.6673V17.2077C31.6906 16.5565 31.431 15.9325 30.9706 15.472C30.5102 15.0115 29.8863 14.7519 29.2351 14.75Z" fill="black"/>
<path opacity="0.1" d="M33.5358 22.125V45.4853C33.5359 46.0411 33.3456 46.5802 32.9969 47.0129C32.6481 47.4456 32.1617 47.7459 31.6186 47.8638C31.4452 47.9154 31.2649 47.9402 31.084 47.9375H18.0136C17.7723 47.3363 17.5691 46.7205 17.4052 46.0938C17.1013 44.8881 16.9465 43.6497 16.9443 42.4063V24.8906C16.9439 24.5273 17.015 24.1675 17.1538 23.8317C17.2926 23.4959 17.4963 23.1909 17.7532 22.934C18.0101 22.677 18.3151 22.4733 18.6508 22.3345C18.9865 22.1957 19.3463 22.1245 19.7096 22.125H33.5358Z" fill="black"/>
<path opacity="0.2" d="M31.6923 22.125V47.3291C31.695 47.51 31.6702 47.6903 31.6186 47.8638C31.5007 48.4069 31.2005 48.8934 30.7679 49.2422C30.3352 49.591 29.7962 49.7813 29.2405 49.7813H18.9353C18.5806 49.1916 18.2724 48.5751 18.0136 47.9375C17.7723 47.3363 17.5691 46.7205 17.4052 46.0938C17.1013 44.8881 16.9465 43.6496 16.9443 42.4063V24.8906C16.9439 24.5273 17.015 24.1675 17.1538 23.8317C17.2926 23.4959 17.4963 23.1909 17.7532 22.934C18.0101 22.677 18.3151 22.4733 18.6508 22.3345C18.9865 22.1957 19.3463 22.1245 19.7096 22.125H31.6923Z" fill="black"/>
<path opacity="0.2" d="M31.6923 22.125V43.6416C31.6894 44.291 31.4302 44.9131 30.971 45.3723C30.5118 45.8316 29.8899 46.0908 29.2405 46.0938H17.4052C17.1013 44.8881 16.9465 43.6496 16.9443 42.4063V24.8906C16.9439 24.5273 17.015 24.1675 17.1538 23.8317C17.2926 23.4959 17.4963 23.1909 17.7532 22.934C18.0101 22.677 18.3151 22.4733 18.6508 22.3345C18.9865 22.1957 19.3463 22.1245 19.7096 22.125H31.6923Z" fill="black"/>
<path opacity="0.2" d="M19.7096 22.125C19.3463 22.1245 18.9865 22.1957 18.6508 22.3345C18.3151 22.4733 18.0101 22.677 17.7532 22.934C17.4963 23.1909 17.2926 23.4959 17.1538 23.8317C17.015 24.1675 16.9439 24.5273 16.9443 24.8906V42.4063C16.9465 43.6496 17.1013 44.8881 17.4052 46.0938H27.397C28.0464 46.0908 28.6683 45.8316 29.1275 45.3723C29.5867 44.9131 29.8459 44.291 29.8488 43.6416V22.125H19.7096Z" fill="black"/>
<path d="M2.81041 14.75H27.3916C28.0434 14.75 28.6684 15.0089 29.1293 15.4698C29.5901 15.9308 29.849 16.5559 29.849 17.2077V41.7923C29.849 42.4441 29.5901 43.0692 29.1293 43.5302C28.6684 43.9911 28.0434 44.25 27.3916 44.25H2.81041C2.15867 44.25 1.53363 43.9911 1.07278 43.5302C0.61193 43.0692 0.353027 42.4441 0.353027 41.7923L0.353027 17.2077C0.353027 16.5559 0.61193 15.9308 1.07278 15.4698C1.53363 15.0089 2.15867 14.75 2.81041 14.75Z" fill="#4B53BC"/>
<path d="M2.81041 14.75H27.3916C28.0434 14.75 28.6684 15.0089 29.1293 15.4698C29.5901 15.9308 29.849 16.5559 29.849 17.2077V41.7923C29.849 42.4441 29.5901 43.0692 29.1293 43.5302C28.6684 43.9911 28.0434 44.25 27.3916 44.25H2.81041C2.15867 44.25 1.53363 43.9911 1.07278 43.5302C0.61193 43.0692 0.353027 42.4441 0.353027 41.7923L0.353027 17.2077C0.353027 16.5559 0.61193 15.9308 1.07278 15.4698C1.53363 15.0089 2.15867 14.75 2.81041 14.75Z" fill="url(#paint4_linear_370_456)"/>
<path d="M22.4379 23.9232H16.9259V38.7101H13.3089V23.9232H7.76367V20.291H22.4379V23.9232Z" fill="black"/>
</g>
<defs>
<linearGradient id="paint0_linear_370_456" x1="-22.6178" y1="20.3837" x2="40.2975" y2="1.38616" gradientUnits="userSpaceOnUse">
<stop stop-color="#EFEDF4"/>
<stop offset="0.135" stop-color="#23CCCD"/>
<stop offset="0.335" stop-color="#0201FF"/>
<stop offset="0.505" stop-color="#EFEDF4"/>
<stop offset="0.68" stop-color="#0201FF"/>
<stop offset="0.89" stop-color="#23CCCD"/>
<stop offset="1" stop-color="#EFEDF4"/>
</linearGradient>
<linearGradient id="paint1_linear_370_456" x1="10.3196" y1="20.819" x2="57.5027" y2="6.5719" gradientUnits="userSpaceOnUse">
<stop stop-color="#EFEDF4"/>
<stop offset="0.135" stop-color="#23CCCD"/>
<stop offset="0.335" stop-color="#0201FF"/>
<stop offset="0.505" stop-color="#EFEDF4"/>
<stop offset="0.68" stop-color="#0201FF"/>
<stop offset="0.89" stop-color="#23CCCD"/>
<stop offset="1" stop-color="#EFEDF4"/>
</linearGradient>
<linearGradient id="paint2_linear_370_456" x1="-8.0704" y1="48.8991" x2="62.1958" y2="33.6767" gradientUnits="userSpaceOnUse">
<stop stop-color="#EFEDF4"/>
<stop offset="0.135" stop-color="#23CCCD"/>
<stop offset="0.335" stop-color="#0201FF"/>
<stop offset="0.505" stop-color="#EFEDF4"/>
<stop offset="0.68" stop-color="#0201FF"/>
<stop offset="0.89" stop-color="#23CCCD"/>
<stop offset="1" stop-color="#EFEDF4"/>
</linearGradient>
<linearGradient id="paint3_linear_370_456" x1="-61.4044" y1="58.6148" x2="49.1287" y2="30.5081" gradientUnits="userSpaceOnUse">
<stop stop-color="#EFEDF4"/>
<stop offset="0.135" stop-color="#23CCCD"/>
<stop offset="0.335" stop-color="#0201FF"/>
<stop offset="0.505" stop-color="#EFEDF4"/>
<stop offset="0.68" stop-color="#0201FF"/>
<stop offset="0.89" stop-color="#23CCCD"/>
<stop offset="1" stop-color="#EFEDF4"/>
</linearGradient>
<linearGradient id="paint4_linear_370_456" x1="-77.9957" y1="45.4792" x2="29.8515" y2="12.9143" gradientUnits="userSpaceOnUse">
<stop stop-color="#EFEDF4"/>
<stop offset="0.135" stop-color="#23CCCD"/>
<stop offset="0.335" stop-color="#0201FF"/>
<stop offset="0.505" stop-color="#EFEDF4"/>
<stop offset="0.68" stop-color="#0201FF"/>
<stop offset="0.89" stop-color="#23CCCD"/>
<stop offset="1" stop-color="#EFEDF4"/>
</linearGradient>
<clipPath id="clip0_370_456">
<rect width="60" height="59" fill="white"/>
</clipPath>
</defs>
</svg>
